<?xml version="1.0" encoding="utf-8"?>
<!-- Generator: Adobe Illustrator 24.0.1, SVG Export Plug-In . SVG Version: 6.00 Build 0)  -->
<svg version="1.1" id="Camada_1" xmlns="http://www.w3.org/2000/svg" xmlns:xlink="http://www.w3.org/1999/xlink" x="0px" y="0px"
	 viewBox="0 0 350 150" style="enable-background:new 0 0 350 150;" xml:space="preserve">
<style type="text/css">
	.st0{fill:#333333;}
	.st1{fill:#087B80;}
	.st2{fill:none;stroke:url(#SVGID_1_);stroke-width:2;stroke-miterlimit:10;}
	.st3{fill:none;stroke:url(#SVGID_2_);stroke-width:2;stroke-miterlimit:10;}
	.st4{fill:none;stroke:url(#SVGID_3_);stroke-width:2;stroke-miterlimit:10;}
</style>
<g>
	<g>
		<path class="st0" d="M145.68,29.54h8.02c0.98,0,2.06,0.04,3.23,0.12c1.17,0.08,2.26,0.33,3.27,0.74c1.01,0.41,1.86,1.05,2.53,1.92
			c0.68,0.86,1.02,2.08,1.02,3.65c0,1.57-0.41,2.87-1.22,3.89c-0.81,1.02-1.85,1.71-3.13,2.05v0.4c0.72,0.21,1.4,0.49,2.03,0.84
			c0.64,0.35,1.2,0.79,1.68,1.32c0.48,0.53,0.85,1.16,1.12,1.9c0.27,0.73,0.4,1.59,0.4,2.57c0,1.6-0.28,2.87-0.84,3.83
			s-1.28,1.69-2.15,2.19c-0.88,0.51-1.86,0.83-2.95,0.98c-1.09,0.15-2.15,0.22-3.19,0.22h-9.81v-0.68h2.15V30.22h-2.15V29.54z
			 M152.26,41.67h0.56c0.74,0,1.5-0.06,2.27-0.18c0.77-0.12,1.48-0.38,2.11-0.78c0.64-0.4,1.16-0.96,1.56-1.68
			c0.4-0.72,0.6-1.68,0.6-2.87c0-0.93-0.17-1.78-0.5-2.53c-0.33-0.76-0.76-1.4-1.3-1.93c-0.53-0.53-1.14-0.94-1.82-1.22
			s-1.38-0.42-2.09-0.42c-0.21,0-0.43,0.02-0.66,0.06s-0.47,0.09-0.74,0.14V41.67z M152.26,55.48h2.19c1.62,0,2.94-0.55,3.95-1.66
			c1.01-1.1,1.52-2.64,1.52-4.61c0-1.46-0.19-2.65-0.56-3.55c-0.37-0.9-0.9-1.6-1.58-2.09c-0.68-0.49-1.48-0.82-2.41-1
			c-0.93-0.17-1.97-0.26-3.11-0.26V55.48z"/>
		<path class="st0" d="M190.52,30.22h-0.64c-0.53,0-0.96,0.01-1.3,0.04c-0.33,0.03-0.6,0.14-0.8,0.34c-0.2,0.2-0.33,0.53-0.4,0.98
			c-0.07,0.45-0.1,1.09-0.1,1.92v13.6c0,3.46-0.7,5.92-2.09,7.4s-3.49,2.21-6.28,2.21c-0.88,0-1.84-0.07-2.89-0.2
			c-1.05-0.13-2.05-0.4-2.99-0.82c-0.94-0.41-1.77-0.99-2.47-1.74c-0.71-0.74-1.14-1.73-1.3-2.95c-0.05-0.29-0.08-0.66-0.08-1.12
			c0-0.45,0-0.94,0-1.48V30.22h-2.51v-0.68h10.09v0.68h-2.55v17.2c0,1.22,0.07,2.35,0.22,3.37c0.15,1.02,0.42,1.91,0.84,2.65
			c0.41,0.75,0.98,1.33,1.7,1.76c0.72,0.43,1.64,0.64,2.75,0.64c1.22,0,2.27-0.22,3.13-0.66s1.56-1.06,2.08-1.88
			c0.52-0.81,0.9-1.8,1.14-2.95c0.24-1.16,0.36-2.44,0.36-3.85V33.49c0-0.85-0.05-1.5-0.14-1.95c-0.09-0.45-0.25-0.78-0.46-1
			c-0.21-0.21-0.49-0.33-0.84-0.36c-0.35-0.03-0.77-0.03-1.28,0c-0.13,0-0.27,0.01-0.42,0.02c-0.15,0.01-0.31,0.02-0.5,0.02v-0.68
			h7.74V30.22z"/>
		<path class="st0" d="M210.35,36.59h-0.72c-0.05-1.57-0.27-2.79-0.64-3.66c-0.37-0.87-0.88-1.5-1.54-1.9
			c-0.65-0.4-1.42-0.63-2.31-0.7c-0.89-0.07-1.87-0.1-2.93-0.1h-3.75v11.89h1.32c0.9,0,1.7-0.02,2.39-0.06
			c0.69-0.04,1.27-0.21,1.74-0.52c0.47-0.31,0.81-0.78,1.04-1.44c0.23-0.65,0.34-1.6,0.34-2.85h0.64v10.41h-0.64
			c-0.03-1.04-0.15-1.87-0.36-2.49s-0.51-1.1-0.88-1.44c-0.37-0.33-0.81-0.55-1.32-0.66c-0.5-0.11-1.08-0.16-1.71-0.16h-1.12
			c-0.21,0-0.45,0.01-0.72,0.02c-0.27,0.01-0.5,0.02-0.72,0.02v12.53h2.35v0.68h-8.94v-0.68h1.96V30.22h-1.96v-0.68h18.43
			L210.35,36.59z"/>
		<path class="st0" d="M230.66,36.59h-0.72c-0.05-1.57-0.27-2.79-0.64-3.66c-0.37-0.87-0.88-1.5-1.54-1.9
			c-0.65-0.4-1.42-0.63-2.31-0.7c-0.89-0.07-1.87-0.1-2.93-0.1h-3.75v11.89h1.32c0.9,0,1.7-0.02,2.39-0.06
			c0.69-0.04,1.27-0.21,1.74-0.52c0.47-0.31,0.81-0.78,1.04-1.44c0.23-0.65,0.34-1.6,0.34-2.85h0.64v10.41h-0.64
			c-0.03-1.04-0.15-1.87-0.36-2.49s-0.51-1.1-0.88-1.44c-0.37-0.33-0.81-0.55-1.32-0.66c-0.5-0.11-1.08-0.16-1.71-0.16h-1.12
			c-0.21,0-0.45,0.01-0.72,0.02c-0.27,0.01-0.5,0.02-0.72,0.02v12.53h2.35v0.68h-8.94v-0.68h1.96V30.22h-1.96v-0.68h18.43
			L230.66,36.59z"/>
		<path class="st0" d="M239.32,55.36h3.87c1.22,0,2.36-0.03,3.41-0.1c1.05-0.07,1.96-0.32,2.73-0.76s1.38-1.14,1.84-2.09
			c0.45-0.96,0.68-2.33,0.68-4.11h0.68v7.86h-20.03v-0.68h2V30.22h-2v-0.68h19.99l0.04,6.54h-0.68c-0.21-1.46-0.59-2.59-1.14-3.37
			c-0.55-0.78-1.21-1.36-2-1.72c-0.79-0.36-1.68-0.56-2.67-0.6c-1-0.04-2.07-0.06-3.21-0.06h-3.51v11.77h1.04
			c0.82,0,1.55-0.03,2.17-0.08c0.62-0.05,1.15-0.23,1.58-0.52c0.43-0.29,0.75-0.75,0.96-1.38s0.33-1.5,0.36-2.61h0.64v10.05h-0.64
			c-0.03-1.01-0.13-1.82-0.3-2.41c-0.17-0.6-0.42-1.05-0.74-1.36c-0.32-0.31-0.71-0.5-1.16-0.6c-0.45-0.09-0.97-0.14-1.56-0.14
			h-2.35V55.36z"/>
		<path class="st0" d="M261.94,30.22h-0.56c-1.28,0-2.33,0.1-3.15,0.3c-0.82,0.2-1.48,0.57-1.97,1.12
			c-0.49,0.55-0.84,1.29-1.04,2.23c-0.2,0.94-0.3,2.17-0.3,3.69h-0.72c0.05-1.38,0.09-2.73,0.1-4.03c0.01-1.3,0.05-2.63,0.1-3.99
			h19.75c0.03,1.36,0.05,2.69,0.06,3.99c0.01,1.3,0.03,2.65,0.06,4.03h-0.64c0-1.62-0.11-2.92-0.32-3.89
			c-0.21-0.97-0.58-1.72-1.1-2.23c-0.52-0.52-1.22-0.85-2.11-1c-0.89-0.15-2.04-0.22-3.45-0.22v25.25h2.71v0.68H259.1v-0.68h2.83
			V30.22z"/>
	</g>
	<g>
		<path class="st1" d="M194.02,72.22c0,0,0.4-2.47,1.44-4.07c-0.8,0.08-1.28,0.08-1.28,0.08h-0.08c-0.4,0-0.64-0.24-0.72-0.64
			c-0.08-0.4,0.24-0.72,0.64-0.8c0.48-0.08,11.73-1.04,16.76-0.48c0,0,3.43,0.16,2.95,2.31c0,0-0.16,0.8-0.88,0.64
			c-0.64-0.16-0.88-1.36-2.39-1.6c-2.71-0.4-7.42-0.08-11.09,0.16c0.16,0.48,0.24,1.12,0.08,2.07c-0.24,1.2-0.72,5.43-1.2,10.93
			c0.56-0.08,1.04-0.08,1.6-0.08c3.99,0,4.95,0.24,5.27,0.96c0.16,0.4-0.08,0.8-0.4,0.96c-0.08,0-0.24,0.08-0.32,0.08
			c-0.24,0-0.48-0.16-0.56-0.4c-0.16-0.08-1.04-0.16-4.23-0.16c-0.48,0-0.96,0.08-1.44,0.08c-0.64,8.78-0.88,19.95,0.8,26.57
			c0.16,0.64,0.08,1.28-0.24,1.84c-0.32,0.56-0.88,1.2-2,1.36c-2.31,0.32-3.75-2.08-4.07-3.75
			C192.34,106.61,189.63,97.19,194.02,72.22z"/>
		<path class="st1" d="M225.53,60.25c0,0,4.71,0.8,1.83,11.09c-1.83,6.54-6.06,11.09-8.38,13.17c-0.48,13.64,3.59,16.12,3.59,16.12
			c2.31,0,7.5-10.45,8.46-13.25c0.16-0.64,0.48-0.88,0.8-0.8c0.32,0.08,0.48,0.24,0.4,0.8c0,0-6.46,17.08-11.65,15.8
			c0,0-6.46-1.84-6.46-19.31C214.12,66.31,221.22,59.45,225.53,60.25z M226.25,71.42c1.92-5.98,0.64-10.05-0.56-9.97
			c-1.44,0.08-5.67,7.5-6.54,21.06C223.38,78.44,225.13,74.85,226.25,71.42z"/>
		<path class="st1" d="M236.7,82.75c0,0,3.83-0.4,5.58,3.99c1.04-1.92,1.84-3.43,2-3.75c0.56-1.12,1.28-1.76,2.15-1.68
			c0,0,2.23,0.08,1.83,3.91c-0.48,4.23-1.68,16.6,0,17.15c1.68,0.56,5.67-13.17,6.14-15c0.16-0.64,0.48-0.88,0.8-0.8
			c0.32,0.08,0.48,0.24,0.4,0.8c0,0-4.39,19.07-9.33,17.55c0,0-3.59-0.88-3.59-5.82c0-2.55,0-7.42,0.48-11.33
			c-0.96,1.75-2.23,4.39-3.51,7.74c0,0-2.31,8.3-4.23,8.54c-1.68,0.24-4.63-0.64-5.9-4.71C228.33,95.36,228.96,83.07,236.7,82.75z
			 M235.83,102.06c0.8-0.32,1.44-3.27,3.19-8.14c0.64-1.76,1.6-3.67,2.39-5.43c-0.32-3.03-2.08-4.71-3.43-4.55
			c-1.75,0.16-3.51,5.11-3.75,10.13C233.91,99.19,235.11,102.38,235.83,102.06z"/>
		<path class="st1" d="M254.74,84.91c0.48-2.39,1.67-2.47,1.67-2.47s1.92-0.32,2.15,1.83c0.16,1.36-0.48,7.5-0.56,12.69
			c1.92-7.26,4.39-11.57,8.7-10.21c3.03,0.96,1.52,5.35,1.52,5.35c-0.64,2.71-1.28,5.19-1.44,7.02c0,0-0.4,2.71,0,2.79
			c0.56,0.08,1.12-3.19,1.12-3.19c2.23-9.89,5.11-17.79,10.13-16.04c3.03,1.04,1.6,5.43,1.6,5.43c-1.36,5.5-2.71,13.72-1.04,14.28
			c1.68,0.56,5.98-13.17,6.22-15c0.08-0.64,0.48-0.8,0.8-0.8c0.24,0,0.48,0.24,0.32,0.8c0,0-4.31,19.07-9.26,17.55
			c0,0-3.83-0.48-3.75-5.51c0.08-4.47,1.75-10.45,2.71-13.08c0,0,0.72-2.15,0.4-2.39c-1.44-1.36-4.87,6.46-6.54,15.24
			c0,0-0.8,5.03-3.51,5.11c-4.15,0.08-3.91-4.55-3.91-4.55c0-4.55,1.52-7.18,2.08-9.42c0,0,0.8-1.99,0.48-2.23
			c-1.68-1.28-4.87,5.74-6.38,15.16c0,0.64-0.08,1.44-0.56,1.68c-1.68,0.8-2.95-0.88-2.95-0.88
			C251.71,100.54,254.26,87.14,254.74,84.91z"/>
		<path class="st1" d="M291.28,82.19c0,0,4.87-0.56,5.43,4.55c0,0,1.28,9.02-7.98,9.25c0.16,1.76,0.64,2.79,1.6,3.19
			c6.06,2.08,12.05-10.21,12.69-11.97c0.24-0.64,0.64-0.8,0.96-0.72c0.24,0.08,0.4,0.32,0.24,0.88c0,0-5.59,15.08-14.36,13.8
			c-2.47-0.48-4.63-2.07-5.43-6.14C283.62,91.13,283.94,82.51,291.28,82.19z M288.73,94.96c6.06-0.72,5.9-6.7,5.9-6.7
			c0.08-2.63-0.48-4.87-1.99-4.87c-1.83,0-3.51,2.95-3.83,7.74C288.73,92.65,288.65,93.92,288.73,94.96z"/>
		<path class="st1" d="M314.02,60.25c0,0,4.71,0.8,1.83,11.09c-1.83,6.54-6.06,11.09-8.38,13.17c-0.48,13.64,3.59,16.12,3.59,16.12
			c2.31,0,7.5-10.45,8.46-13.25c0.16-0.64,0.48-0.88,0.8-0.8c0.32,0.08,0.48,0.24,0.4,0.8c0,0-6.46,17.08-11.65,15.8
			c0,0-6.46-1.84-6.46-19.31C302.61,66.31,309.71,59.45,314.02,60.25z M314.74,71.42c1.92-5.98,0.64-10.05-0.56-9.97
			c-1.44,0.08-5.67,7.5-6.54,21.06C311.87,78.44,313.62,74.85,314.74,71.42z"/>
	</g>
</g>
<g>
	<linearGradient id="SVGID_1_" gradientUnits="userSpaceOnUse" x1="12.2827" y1="73.4729" x2="140.1879" y2="73.4729">
		<stop  offset="0" style="stop-color:#087B80"/>
		<stop  offset="1" style="stop-color:#E2E2E1"/>
	</linearGradient>
	<circle class="st2" cx="76.24" cy="73.47" r="62.95"/>
	
		<linearGradient id="SVGID_2_" gradientUnits="userSpaceOnUse" x1="18.9739" y1="72.0482" x2="95.4598" y2="72.0482" gradientTransform="matrix(0.9908 -0.1353 0.1353 0.9908 -2.2008 12.0078)">
		<stop  offset="0" style="stop-color:#FFFFFF"/>
		<stop  offset="2.283105e-03" style="stop-color:#9BA1A8"/>
		<stop  offset="0.179" style="stop-color:#BFC2C5"/>
		<stop  offset="0.3215" style="stop-color:#CCC9CD"/>
		<stop  offset="0.5137" style="stop-color:#F2F2F2"/>
		<stop  offset="0.7055" style="stop-color:#CCC9CD"/>
		<stop  offset="0.8502" style="stop-color:#BFC2C5"/>
		<stop  offset="1" style="stop-color:#9BA1A8"/>
	</linearGradient>
	<path class="st3" d="M104.74,115.71c-0.35,0.24-0.7,0.48-1.06,0.72c-1.1,0.73-2.21,1.41-3.38,2.05c-1.16,0.64-2.33,1.23-3.56,1.78
		c-1.04,0.48-2.14,0.92-3.24,1.31c-0.18,0.07-0.32,0.14-0.51,0.17c-1.24,0.46-2.53,0.87-3.78,1.19c-1.3,0.32-2.66,0.6-3.93,0.82
		c-1.12,0.25-2.3,0.41-3.45,0.47c-1.52,0.16-3.04,0.27-4.58,0.24c-1.54,0.02-3.08-0.01-4.59-0.19c-1.17-0.08-2.3-0.26-3.47-0.44
		c-1.52-0.23-3.06-0.59-4.6-0.96c-1.1-0.33-2.21-0.66-3.32-1.04c-1.31-0.45-2.58-0.95-3.86-1.54c-1.27-0.5-2.51-1.15-3.76-1.8
		c-1.2-0.65-2.4-1.36-3.56-2.11c-1.16-0.76-2.34-1.6-3.41-2.47c-1.13-0.86-2.21-1.77-3.21-2.74c-1.09-0.96-2.1-1.97-3.01-3
		c-1.01-1.06-1.93-2.19-2.76-3.33c-0.92-1.12-1.76-2.31-2.55-3.5c-0.79-1.24-1.54-2.48-2.25-3.78c-0.65-1.26-1.31-2.56-1.88-3.93
		c-0.36-0.91-0.78-1.82-1.09-2.74c-0.16-0.46-0.32-0.97-0.48-1.42c-0.48-1.42-0.87-2.86-1.21-4.31c-0.4-1.48-0.64-2.94-0.85-4.45
		c-0.3-1.5-0.46-3.01-0.47-4.5c-0.17-1.56-0.18-3.1-0.11-4.65c0.03-1.54,0.15-3.1,0.33-4.61c0.17-1.56,0.44-3.09,0.76-4.62
		c0.32-1.53,0.74-3.03,1.21-4.49c0.47-1.51,0.98-3.02,1.65-4.46c0.57-1.47,1.24-2.91,2.05-4.32c0.72-1.4,1.54-2.81,2.46-4.14
		c0.88-1.32,1.8-2.65,2.84-3.85c1.03-1.29,2.16-2.51,3.31-3.58c1.13-1.21,2.33-2.29,3.6-3.23c1.25-1.04,2.52-1.98,3.89-2.84
		c1.32-0.9,2.75-1.72,4.19-2.45c1.43-0.77,2.88-1.45,4.44-2c0.36-0.19,0.77-0.35,1.18-0.5c1.15-0.4,2.25-0.79,3.41-1.09
		c1.57-0.5,3.1-0.86,4.71-1.08c1.59-0.31,3.15-0.53,4.77-0.65c1.76-0.14,3.59-0.15,5.32-0.1c1.06,0.05,2.08,0.1,3.1,0.2
		c-1.04,0.48-2.03,1-3.01,1.56c-1.7,0.91-3.25,1.93-4.77,3.1c-1.37,0.91-2.62,1.94-3.81,3.07c-1.15,1.07-2.25,2.18-3.3,3.34
		c-1,1.1-2,2.29-2.84,3.51c-0.85,1.17-1.65,2.34-2.35,3.59c-0.76,1.16-1.41,2.36-1.96,3.59c-0.61,1.14-1.13,2.32-1.54,3.53
		c-0.52,1.13-0.89,2.29-1.21,3.44c-0.38,1.11-0.66,2.21-0.9,3.3c-0.29,1.05-0.48,2.09-0.63,3.16c-0.2,0.99-0.36,1.97-0.46,3L53.3,62
		c-0.07,0.92-0.17,1.95-0.18,2.91c-0.07,0.92-0.04,1.83-0.01,2.74c-0.03,0.82,0.04,1.68,0.11,2.53c0.02,0.82,0.08,1.62,0.24,2.47
		c0.06,0.81,0.17,1.56,0.32,2.36c0.1,0.76,0.25,1.5,0.45,2.25c0.1,0.71,0.29,1.45,0.49,2.15c0.19,0.7,0.38,1.39,0.62,2.08
		c0.18,0.65,0.38,1.34,0.65,1.98c0.02,0.14,0.03,0.24,0.1,0.37c0.22,0.55,0.39,1.1,0.65,1.59c0.23,0.64,0.51,1.28,0.78,1.86
		c0.28,0.63,0.55,1.22,0.87,1.8c0.28,0.64,0.61,1.26,0.97,1.84c0.33,0.63,0.65,1.21,1.06,1.78c0.33,0.63,0.69,1.2,1.11,1.77
		c0.37,0.58,0.78,1.14,1.24,1.71c0.42,0.62,0.84,1.23,1.3,1.79c0.46,0.56,0.97,1.12,1.48,1.67c0.52,0.6,1.02,1.16,1.63,1.7
		c0.52,0.6,1.12,1.19,1.73,1.74c0.44,0.42,0.93,0.83,1.42,1.25c0.82,0.75,1.74,1.45,2.64,2.09c0.59,0.45,1.18,0.9,1.81,1.29
		c0.96,0.69,2.01,1.31,3.05,1.89c1.1,0.67,2.19,1.24,3.36,1.75c0.83,0.42,1.69,0.78,2.55,1.09c1.12,0.47,2.23,0.85,3.34,1.23
		l0.05-0.01c1.2,0.36,2.35,0.69,3.59,0.95c1.3,0.35,2.63,0.6,3.94,0.71c1.38,0.24,2.79,0.39,4.19,0.39c1.46,0.14,2.9,0.13,4.38,0.03
		C103.74,115.8,104.26,115.73,104.74,115.71z"/>
	<linearGradient id="SVGID_3_" gradientUnits="userSpaceOnUse" x1="17.6441" y1="73.4729" x2="134.8266" y2="73.4729">
		<stop  offset="0" style="stop-color:#C48E45;stop-opacity:0.5"/>
		<stop  offset="0.1114" style="stop-color:#D5A940;stop-opacity:0.5"/>
		<stop  offset="0.3311" style="stop-color:#EACE76"/>
		<stop  offset="0.5" style="stop-color:#FFEBA0;stop-opacity:0.6"/>
		<stop  offset="0.6918" style="stop-color:#EACE76"/>
		<stop  offset="0.8333" style="stop-color:#D5A940;stop-opacity:0.5"/>
		<stop  offset="1" style="stop-color:#C48E45;stop-opacity:0.5"/>
	</linearGradient>
	<circle class="st4" cx="76.24" cy="73.47" r="57.59"/>
</g>
</svg>
